# xmcd
#
# Track frame offsets:
#	150
#	5264
#	17134
#	22045
#	32891
#	40263
#	45925
#	60576
#	67036
#	79729
#	102573
#	125757
#	132307
#	140342
#	160760
#	166483
#	172416
#	179790
#	186854
#	190536
#	201592
#	205679
#	212538
#	217859
#	233164
#	239304
#	248904
#	257056
#	261971
#	265107
#	270011
#	274922
#	282904
#	290273
#	294364
#	303966
#
# Disc length: 4209 seconds
#
# Revision: 0
# Processed by: cddbd v1.5.2PL0 Copyright (c) Steve Scherf et al.
# Submitted via: EZCDAudioConverter 2.1.7.1
#
DISCID=1a106f24
DTITLE=Kyle Dixon and Michael Stein - Stranger Things 1/2
DYEAR=1900
DGENRE=
TTITLE0=Stranger Things
TTITLE1=Kids
TTITLE2=Nancy And Barb
TTITLE3=This Isn't You
TTITLE4=Lay-Z-Boy
TTITLE5=Friendship
TTITLE6=Eleven
TTITLE7=A Kiss
TTITLE8=Castle Byers
TTITLE9=Hawkins
TTITLE10=The Upside Down
TTITLE11=After Sarah
TTITLE12=One Blink For Yes
TTITLE13=Photos In The Woods
TTITLE14=Fresh Blood
TTITLE15=Lamps
TTITLE16=Hallucinations
TTITLE17=Hanging Lights
TTITLE18=Biking To School
TTITLE19=Are You Sure?
TTITLE20=Agents
TTITLE21=Papa
TTITLE22=Cops Are Good At Finding
TTITLE23=No Weapons
TTITLE24=Walking Through The Upside Down
TTITLE25=She'll Kill You
TTITLE26=Run Away
TTITLE27=No Autopsy
TTITLE28=Dispatch
TTITLE29=Joyce And Lonnie Fighting
TTITLE30=Lights Out
TTITLE31=Hazmat Suits
TTITLE32=Theoretically
TTITLE33=You Can Talk To Me
TTITLE34=What Else Is There To Do?
TTITLE35=Hawkins Lab
EXTD=
EXTT0=
EXTT1=
EXTT2=
EXTT3=
EXTT4=
EXTT5=
EXTT6=
EXTT7=
EXTT8=
EXTT9=
EXTT10=
EXTT11=
EXTT12=
EXTT13=
EXTT14=
EXTT15=
EXTT16=
EXTT17=
EXTT18=
EXTT19=
EXTT20=
EXTT21=
EXTT22=
EXTT23=
EXTT24=
EXTT25=
EXTT26=
EXTT27=
EXTT28=
EXTT29=
EXTT30=
EXTT31=
EXTT32=
EXTT33=
EXTT34=
EXTT35=
PLAYORDER=
